<svg width="18" height="18" viewBox="0 0 18 18" fill="none" xmlns="http://www.w3.org/2000/svg">
<path d="M12 5.25003C12 4.83582 12.3358 4.50003 12.75 4.50003C13.1642 4.50003 13.5 4.83582 13.5 5.25003C13.5 5.66425 13.1642 6.00003 12.75 6.00003C12.3358 6.00003 12 5.66425 12 5.25003Z" fill="#B0826A"/>
<path fill-rule="evenodd" clip-rule="evenodd" d="M9.00002 5.43753C7.0325 5.43753 5.43752 7.03252 5.43752 9.00003C5.43752 10.9675 7.0325 12.5625 9.00002 12.5625C10.9675 12.5625 12.5625 10.9675 12.5625 9.00003C12.5625 7.03252 10.9675 5.43753 9.00002 5.43753ZM6.56252 9.00003C6.56252 7.65384 7.65382 6.56253 9.00002 6.56253C10.3462 6.56253 11.4375 7.65384 11.4375 9.00003C11.4375 10.3462 10.3462 11.4375 9.00002 11.4375C7.65382 11.4375 6.56252 10.3462 6.56252 9.00003Z" fill="#B0826A"/>
<path fill-rule="evenodd" clip-rule="evenodd" d="M12.9437 2.1248C10.3438 1.83422 7.65627 1.83422 5.05634 2.1248C3.5473 2.29345 2.32905 3.48221 2.15163 4.99911C1.84073 7.65733 1.84073 10.3427 2.15163 13.001C2.32905 14.5179 3.5473 15.7066 5.05634 15.8753C7.65627 16.1659 10.3438 16.1659 12.9437 15.8753C14.4527 15.7066 15.671 14.5179 15.8484 13.001C16.1593 10.3427 16.1593 7.65733 15.8484 4.99911C15.671 3.48221 14.4527 2.29345 12.9437 2.1248ZM5.1813 3.24283C7.69818 2.96154 10.3019 2.96154 12.8188 3.24283C13.8163 3.35433 14.6154 4.14154 14.731 5.1298C15.0318 7.70119 15.0318 10.2989 14.731 12.8703C14.6154 13.8585 13.8163 14.6457 12.8187 14.7572C10.3019 15.0385 7.69819 15.0385 5.1813 14.7572C4.18372 14.6457 3.3846 13.8585 3.26902 12.8703C2.96827 10.2989 2.96827 7.70119 3.26902 5.1298C3.3846 4.14154 4.18372 3.35433 5.1813 3.24283Z" fill="#B0826A"/>
</svg>
