<svg width="18" height="18" viewBox="0 0 18 18" fill="none" xmlns="http://www.w3.org/2000/svg">
<path d="M6.66437 5.37739C6.80159 5.38107 6.95372 5.38848 7.09846 5.70977C7.19444 5.92366 7.35613 6.31741 7.48783 6.63816C7.59032 6.88775 7.67466 7.09313 7.69576 7.13517C7.74399 7.23117 7.77368 7.34194 7.71061 7.47117C7.70317 7.48641 7.69615 7.50099 7.68938 7.51502C7.63879 7.62002 7.60279 7.69474 7.51771 7.79245C7.48272 7.83261 7.44628 7.87664 7.40997 7.92052C7.34612 7.99768 7.28267 8.07435 7.22829 8.12851C7.13184 8.22445 7.03163 8.32793 7.14293 8.51993C7.25428 8.71193 7.64385 9.3434 8.21892 9.85301C8.83716 10.4034 9.37477 10.6354 9.64653 10.7526C9.69929 10.7754 9.74203 10.7938 9.7734 10.8094C9.96636 10.9054 10.0813 10.8907 10.1926 10.7614C10.304 10.6322 10.675 10.2001 10.8049 10.0081C10.931 9.81611 11.0608 9.84565 11.2389 9.9121C11.417 9.97855 12.3668 10.4438 12.5597 10.5398C12.5978 10.5588 12.6335 10.5759 12.6666 10.5918C12.8008 10.6562 12.892 10.6999 12.9307 10.7651C12.9789 10.8464 12.9789 11.2304 12.8194 11.6809C12.6562 12.1314 11.8696 12.5635 11.5135 12.5967C11.4797 12.5999 11.4462 12.604 11.4116 12.6081C11.0852 12.6476 10.6709 12.6977 9.19463 12.1167C7.37559 11.4013 6.17483 9.62655 5.93206 9.26773C5.91289 9.2394 5.8997 9.2199 5.89264 9.21044L5.88853 9.20494C5.77808 9.05715 5.10237 8.153 5.10237 7.22014C5.10237 6.32762 5.54204 5.86295 5.74258 5.651C5.75529 5.63757 5.76704 5.62515 5.77765 5.61371C5.95571 5.42171 6.16352 5.37371 6.29335 5.37371C6.42325 5.37371 6.55308 5.37371 6.66437 5.37739Z" fill="#B0826A"/>
<path fill-rule="evenodd" clip-rule="evenodd" d="M1.63804 15.9986C1.57668 16.2213 1.77955 16.4269 2.00308 16.3685L5.45859 15.4659C6.54936 16.0568 7.77741 16.3706 9.02776 16.3706H9.03146C13.1459 16.3706 16.4999 13.0361 16.4999 8.93719C16.4999 6.95051 15.7244 5.08195 14.3146 3.67868C12.9048 2.27547 11.0312 1.5 9.03139 1.5C4.91696 1.5 1.56299 4.83454 1.56299 8.93352C1.56252 10.2375 1.90671 11.5187 2.561 12.6484L1.63804 15.9986ZM3.6456 12.9472C3.72571 12.6564 3.68569 12.3456 3.53451 12.0845C2.9794 11.1261 2.68759 10.0391 2.68799 8.93352C2.68799 5.46119 5.53294 2.625 9.03139 2.625C10.7338 2.625 12.3221 3.28274 13.521 4.47604C14.7185 5.66802 15.3749 7.24958 15.3749 8.93719C15.3749 12.4094 12.53 15.2456 9.03146 15.2456H9.02776C7.96537 15.2456 6.92138 14.9789 5.99441 14.4767C5.74351 14.3408 5.45035 14.3054 5.17428 14.3775L3.10248 14.9186L3.6456 12.9472Z" fill="#B0826A"/>
</svg>
