<svg xmlns="http://www.w3.org/2000/svg" width="34" height="34" viewBox="0 0 34 34" fill="none">
<circle cx="17" cy="17" r="16.75" stroke="#B0826A" stroke-width="0.5"/>
<path d="M20 13.2499C20 12.8357 20.3358 12.4999 20.75 12.4999C21.1642 12.4999 21.5 12.8357 21.5 13.2499C21.5 13.6641 21.1642 13.9999 20.75 13.9999C20.3358 13.9999 20 13.6641 20 13.2499Z" fill="#B0826A"/>
<path fill-rule="evenodd" clip-rule="evenodd" d="M17 13.4374C15.0325 13.4374 13.4375 15.0324 13.4375 16.9999C13.4375 18.9674 15.0325 20.5624 17 20.5624C18.9675 20.5624 20.5625 18.9674 20.5625 16.9999C20.5625 15.0324 18.9675 13.4374 17 13.4374ZM14.5625 16.9999C14.5625 15.6537 15.6538 14.5624 17 14.5624C18.3462 14.5624 19.4375 15.6537 19.4375 16.9999C19.4375 18.3461 18.3462 19.4374 17 19.4374C15.6538 19.4374 14.5625 18.3461 14.5625 16.9999Z" fill="#B0826A"/>
<path fill-rule="evenodd" clip-rule="evenodd" d="M20.9437 10.1247C18.3438 9.83409 15.6563 9.83409 13.0563 10.1247C11.5473 10.2933 10.329 11.4821 10.1516 12.999C9.84073 15.6572 9.84073 18.3426 10.1516 21.0008C10.329 22.5177 11.5473 23.7065 13.0563 23.8751C15.6563 24.1657 18.3438 24.1657 20.9437 23.8751C22.4527 23.7065 23.671 22.5177 23.8484 21.0008C24.1593 18.3426 24.1593 15.6572 23.8484 12.999C23.671 11.4821 22.4527 10.2933 20.9437 10.1247ZM13.1813 11.2427C15.6982 10.9614 18.3019 10.9614 20.8188 11.2427C21.8163 11.3542 22.6154 12.1414 22.731 13.1297C23.0318 15.7011 23.0318 18.2988 22.731 20.8701C22.6154 21.8584 21.8163 22.6456 20.8187 22.7571C18.3019 23.0384 15.6982 23.0384 13.1813 22.7571C12.1837 22.6456 11.3846 21.8584 11.269 20.8701C10.9683 18.2988 10.9683 15.7011 11.269 13.1297C11.3846 12.1414 12.1837 11.3542 13.1813 11.2427Z" fill="#B0826A"/>
</svg>