<svg width="125" height="72" viewBox="0 0 125 72" fill="none" xmlns="http://www.w3.org/2000/svg">
  <path d="M16.852 71.663C16.6884 71.663 16.5248 71.663 16.3612 71.663C16.1976 71.663 16.1976 71.4994 16.034 71.4994C16.034 71.3358 15.8704 71.3358 15.8704 71.1722H16.1976C16.1976 71.3358 16.1976 71.3358 16.3612 71.3358L16.5248 71.4994C16.5248 71.4994 16.6884 71.4994 16.852 71.4994C17.0157 71.4994 17.0156 71.4994 17.1793 71.4994C17.3429 71.4994 17.3429 71.4994 17.3429 71.3358C17.3429 71.1722 17.3429 71.1722 17.3429 71.1722V71.0086C17.3429 71.0086 17.1793 71.0086 17.1793 70.845H17.0157H16.6884C16.5248 70.845 16.3612 70.6813 16.1976 70.6813C16.034 70.5177 16.034 70.5177 16.034 70.3541C16.034 70.1905 16.034 70.1905 16.1976 70.0269C16.3612 69.8633 16.3612 69.8633 16.5248 69.8633C16.6884 69.8633 16.6884 69.8633 16.852 69.8633C17.0157 69.8633 17.1793 69.8633 17.1793 69.8633C17.3429 69.8633 17.3429 70.0269 17.5065 70.0269C17.6701 70.0269 17.6701 70.1905 17.6701 70.3541H17.3429C17.3429 70.1905 17.3429 70.1905 17.1793 70.0269C17.0156 69.8633 17.0157 69.8633 16.852 69.8633C16.6884 69.8633 16.6884 69.8633 16.5248 69.8633C16.5248 69.8633 16.3612 69.8633 16.3612 70.0269V70.1905V70.3541L16.5248 70.5177H16.6884H16.852H17.0157C17.0157 70.5177 17.1793 70.5177 17.1793 70.6813C17.1793 70.845 17.3429 70.845 17.3429 70.845C17.3429 70.845 17.3429 71.0086 17.3429 71.1722C17.3429 71.3358 17.3429 71.3358 17.1793 71.4994C17.0156 71.663 17.0157 71.663 16.852 71.663C17.1793 71.663 17.0157 71.663 16.852 71.663Z" fill="#C29D79" />
  <path d="M20.2878 71.6626V69.3721H20.6151V70.3537H21.7604V69.3721H22.0876V71.6626H21.7604V70.681H20.6151V71.6626H20.2878Z" fill="#C29D79" />
  <path d="M25.0328 69.3721V71.6626H24.7056V69.3721H25.0328Z" fill="#C29D79" />
  <path d="M29.4501 69.3721V71.6626H29.1229L27.9776 69.8629V71.6626H27.6504V69.3721H27.9776L29.2865 71.1718V69.3721H29.4501Z" fill="#C29D79" />
  <path d="M32.2317 71.6626V69.3721H33.5406V69.5357H32.3953V70.3537H33.377V70.5174H32.3953V71.3354H33.5406V71.499H32.2317V71.6626Z" fill="#C29D79" />
  <path d="M39.2668 71.6626V69.3721H40.0849C40.2485 69.3721 40.4121 69.3721 40.4121 69.3721L40.5757 69.5357C40.5757 69.5357 40.5757 69.6993 40.5757 69.8629C40.5757 70.0265 40.5757 70.0265 40.5757 70.0265C40.5757 70.0265 40.5757 70.1901 40.4121 70.1901L40.5757 70.3537C40.5757 70.3537 40.5757 70.5174 40.5757 70.681C40.5757 70.8446 40.5757 70.8446 40.5757 71.0082C40.5757 71.1718 40.4121 71.1718 40.4121 71.1718C40.4121 71.1718 40.0849 71.1718 39.9213 71.1718H39.2668V71.6626ZM39.4305 70.3537H39.9213H40.0849C40.0849 70.3537 40.2485 70.3537 40.2485 70.1901V70.0265C40.2485 69.8629 40.2485 69.8629 40.0849 69.6993C40.0849 69.6993 39.9213 69.5357 39.7577 69.5357H39.2668V70.3537H39.4305ZM39.4305 71.3354H39.9213C40.0849 71.3354 40.2485 71.3354 40.2485 71.1718C40.2485 71.0082 40.4121 71.0082 40.4121 70.8446V70.681L40.2485 70.5174C40.2485 70.5174 40.0849 70.5174 39.9213 70.5174H39.4305V71.3354Z" fill="#C29D79" />
  <path d="M43.3572 71.6626V69.3721H44.1752C44.3389 69.3721 44.5025 69.3721 44.6661 69.5357C44.8297 69.6993 44.8297 69.6993 44.9933 69.6993C44.9933 69.8629 44.9933 69.8629 44.9933 70.0265C44.9933 70.1901 44.9933 70.3537 44.9933 70.3537C44.9933 70.5174 44.8297 70.5174 44.6661 70.5174C44.5025 70.5174 44.3389 70.681 44.1752 70.681H43.5208V70.5174H44.1752C44.3389 70.5174 44.3389 70.5174 44.5025 70.5174L44.6661 70.3537V70.1901V70.0265L44.5025 69.6993C44.5025 69.6993 44.3389 69.6993 44.1752 69.6993H43.6844V71.6626H43.3572ZM44.6661 71.6626L44.1752 70.681H44.5025L44.9933 71.6626H44.6661Z" fill="#C29D79" />
  <path d="M47.7747 69.3721V71.6626H47.4475V69.3721H47.7747Z" fill="#C29D79" />
  <path d="M51.3743 71.6626C51.2106 71.6626 51.047 71.6627 50.8834 71.499C50.7198 71.3354 50.5562 71.3354 50.5562 71.1718C50.3926 71.0082 50.3926 70.8446 50.3926 70.5174C50.3926 70.3537 50.3926 70.0265 50.5562 69.8629C50.7198 69.6993 50.7198 69.5357 50.8834 69.5357C51.047 69.5357 51.2106 69.3721 51.3743 69.3721C51.5379 69.3721 51.5379 69.3721 51.7015 69.3721C51.8651 69.3721 51.8651 69.5357 52.0287 69.5357L52.1923 69.6993C52.1923 69.6993 52.3559 69.8629 52.3559 70.0265H52.0287C52.0287 70.0265 52.0287 69.8629 51.8651 69.8629L51.7015 69.6993C51.7015 69.6993 51.5379 69.6993 51.5379 69.5357H51.3743C51.2106 69.5357 51.047 69.5357 51.047 69.6993C50.8834 69.6993 50.8834 69.8629 50.7198 70.0265C50.7198 70.1901 50.5562 70.3537 50.5562 70.5174C50.5562 70.681 50.5562 70.8446 50.7198 71.0082C50.7198 71.1718 50.8834 71.1718 51.047 71.3354C51.2106 71.3354 51.2106 71.499 51.3743 71.499C51.5379 71.499 51.5379 71.499 51.7015 71.499C51.8651 71.499 51.8651 71.3354 51.8651 71.3354C51.8651 71.1718 52.0287 71.1718 52.0287 71.0082H52.1923H51.5379V70.8446H52.3559V71.0082C52.3559 71.1718 52.3559 71.3354 52.1923 71.499C52.1923 71.6627 52.0287 71.6626 51.8651 71.8263C51.7015 71.9899 51.5379 71.6626 51.3743 71.6626Z" fill="#C29D79" />
  <path d="M54.9736 71.6626V69.3721H55.3009V70.3537H56.4461V69.3721H56.7734V71.6626H56.4461V70.681H55.3009V71.6626H54.9736Z" fill="#C29D79" />
  <path d="M59.2278 69.6993V69.5356H60.8639V69.6993H60.2095V71.6626H59.8822V69.6993H59.2278Z" fill="#C29D79" />
  <path d="M66.5903 71.6626V69.3721H66.9176V71.3354H67.8992V71.499H66.5903V71.6626Z" fill="#C29D79" />
  <path d="M70.6805 69.3721V71.6626H70.3533V69.3721H70.6805Z" fill="#C29D79" />
  <path d="M73.4619 71.6626V69.3721H73.7891V70.5174L74.7708 69.3721H75.098L74.1164 70.3537L75.098 71.499H74.7708L73.9528 70.5174L73.6255 70.8446V71.499H73.4619V71.6626Z" fill="#C29D79" />
  <path d="M77.7158 71.6626V69.3721H79.0247V69.5357H77.8794V70.3537H78.8611V70.5174H77.8794V71.3354H79.0247V71.499H77.7158V71.6626Z" fill="#C29D79" />
  <path d="M84.7513 71.6626H84.4241L85.2421 69.3721H85.5694L86.3874 71.6626H86.0602L85.4057 69.6993L84.7513 71.6626ZM84.9149 70.681H86.0602V70.8446H84.9149V70.681Z" fill="#C29D79" />
  <path d="M91.9502 71.6626V69.3721H92.7683C92.9319 69.3721 93.0955 69.3721 93.0955 69.3721C93.2591 69.3721 93.2591 69.5357 93.2591 69.5357C93.2591 69.5357 93.2591 69.6993 93.2591 69.8629C93.2591 70.0265 93.2591 70.0265 93.2591 70.0265C93.2591 70.0265 93.2591 70.1901 93.0955 70.1901L93.2591 70.3537C93.2591 70.3537 93.2591 70.5174 93.2591 70.681C93.2591 70.8446 93.2591 70.8446 93.2591 71.0082C93.2591 71.1718 93.0955 71.1718 93.0955 71.1718C93.0955 71.1718 92.7683 71.1718 92.6046 71.1718H91.9502V71.6626ZM92.1138 70.3537H92.6046H92.7683C92.7683 70.3537 92.9319 70.3537 92.9319 70.1901V70.0265C92.9319 69.8629 92.9319 69.8629 92.7683 69.6993C92.7683 69.6993 92.6047 69.5357 92.441 69.5357H91.9502V70.3537H92.1138ZM92.1138 71.3354H92.6046C92.7683 71.3354 92.9319 71.3354 92.9319 71.1718C92.9319 71.0082 93.0955 71.0082 93.0955 70.8446V70.681L92.9319 70.5174C92.9319 70.5174 92.7683 70.5174 92.6046 70.5174H92.1138V71.3354Z" fill="#C29D79" />
  <path d="M96.0405 71.6626V69.3721H96.8586C97.0222 69.3721 97.1858 69.3721 97.3494 69.5357C97.513 69.6993 97.513 69.6993 97.6767 69.6993C97.6767 69.8629 97.6767 69.8629 97.6767 70.0265C97.6767 70.1901 97.6767 70.3537 97.6767 70.3537C97.6767 70.5174 97.513 70.5174 97.3494 70.5174C97.1858 70.5174 97.0222 70.681 96.8586 70.681H96.2041V70.5174H96.8586C97.0222 70.5174 97.0222 70.5174 97.1858 70.5174L97.3494 70.3537V70.1901V70.0265L97.1858 69.8629C97.1858 69.8629 97.0222 69.8629 96.8586 69.8629H96.3677V71.8263H96.0405V71.6626ZM97.3494 71.6626L96.8586 70.681H97.1858L97.6767 71.6626H97.3494Z" fill="#C29D79" />
  <path d="M100.458 69.3721V71.6626H100.131V69.3721H100.458Z" fill="#C29D79" />
  <path d="M103.403 69.3721V71.6626H103.076V69.3721H103.403ZM103.894 71.6626H103.403V71.499H103.894C104.058 71.499 104.221 71.499 104.385 71.3354C104.548 71.3354 104.548 71.1718 104.712 71.0082C104.876 70.8446 104.876 70.681 104.876 70.5174C104.876 70.3537 104.876 70.1901 104.712 70.0265C104.712 69.8629 104.548 69.8629 104.385 69.6993C104.221 69.6993 104.058 69.5357 103.894 69.5357H103.403V69.3721H104.058C104.221 69.3721 104.385 69.3721 104.548 69.5357C104.712 69.6993 104.876 69.6993 104.876 69.8629C105.039 70.0265 105.039 70.1901 105.039 70.5174C105.039 70.681 105.039 71.0082 104.876 71.1718C104.712 71.3354 104.712 71.499 104.548 71.499C104.221 71.6627 104.058 71.6626 103.894 71.6626Z" fill="#C29D79" />
  <path d="M107.493 71.6626V69.3721H108.802V69.5357H107.657V70.3537H108.639V70.5174H107.657V71.3354H108.802V71.499H107.493V71.6626Z" fill="#C29D79" />
  <path d="M18.8154 50.556L14.3979 63.8086H13.4162L9.48953 52.0285L5.56283 63.8086H4.58115L0 50.556H0.981675L4.90838 62.4998L8.99869 50.556H9.81675L13.7435 62.4998L17.6702 50.556H18.8154Z" fill="#C29D79" />
  <path d="M30.2684 62.8269V63.6449H21.4333V50.5559H30.1048V51.374H22.415V56.6096H29.2868V57.4276H22.415V62.8269H30.2684Z" fill="#C29D79" />
  <path d="M67.572 59.2274V63.8085H66.5903V59.2274L61.3547 50.5559H62.5L67.0812 58.2457L71.6623 50.5559H72.644L67.572 59.2274Z" fill="#C29D79" />
  <path d="M73.9529 50.5559H74.9346V62.8269H82.2971V63.8085H73.9529V50.5559Z" fill="#C29D79" />
  <path d="M108.966 50.5559V63.8085H108.148L99.3127 52.3556V63.8085H98.4946V50.5559H99.3127L107.984 62.0088V50.5559H108.966Z" fill="#C29D79" />
  <path d="M124.018 53.6645C123.364 52.6829 122.709 51.8648 121.564 51.374C120.582 50.8831 119.437 50.5559 118.128 50.5559H113.056V51.374H118.128C119.273 51.374 120.419 51.5376 121.237 52.0284C122.218 52.5193 122.873 53.1737 123.364 53.9918C123.855 54.8098 124.018 55.7915 124.018 56.9368C124.018 58.0821 123.855 59.0638 123.364 59.8818C122.873 60.6999 122.218 61.3543 121.237 61.8452C120.255 62.336 119.273 62.4996 118.128 62.4996H113.056V63.3177H118.128C119.437 63.3177 120.582 62.9905 121.728 62.4996C122.709 62.0088 123.527 61.1907 124.182 60.2091C124.836 59.2274 125 58.0821 125 56.7732C125 55.7915 124.673 54.8098 124.018 53.6645Z" fill="#C29D79" />
  <path d="M59.882 53.6645C59.2276 52.6829 58.5731 51.8648 57.4279 51.374C56.4462 50.8831 55.1373 50.5559 53.8284 50.5559H48.7564V51.374H49.9017H50.0653H53.6648C54.81 51.374 55.9553 51.5376 56.7734 52.0284C57.7551 52.5193 58.4095 53.1737 58.9004 53.9918C59.3912 54.8098 59.5548 55.7915 59.5548 56.9368C59.5548 58.0821 59.3912 59.0638 58.9004 59.8818C58.4095 60.6999 57.7551 61.3543 56.7734 61.8452C55.7917 62.336 54.81 62.4996 53.6648 62.4996H49.5744H48.5928V63.6449H53.6648C54.9737 63.6449 56.119 63.3177 57.2642 62.8269C58.2459 62.336 59.064 61.5179 59.7184 60.5363C60.3729 59.5546 60.8637 58.4093 60.8637 57.1004C60.8637 55.7915 60.5365 54.6462 59.882 53.6645Z" fill="#C29D79" />
  <path d="M44.8298 53.6645C44.1753 52.6829 43.5209 51.8648 42.3756 51.374C41.3939 50.8831 40.085 50.5559 38.7761 50.5559H33.7041V51.374H34.8494H35.013H38.6125C39.7578 51.374 40.9031 51.5376 41.7211 52.0284C42.7028 52.5193 43.3572 53.1737 43.8481 53.9918C44.3389 54.8098 44.5025 55.7915 44.5025 56.9368C44.5025 58.0821 44.3389 59.0638 43.8481 59.8818C43.3572 60.6999 42.7028 61.3543 41.7211 61.8452C40.7394 62.336 39.7578 62.4996 38.6125 62.4996H34.6858H33.7041V63.3177H38.7761C40.085 63.3177 41.2303 62.9905 42.3756 62.4996C43.3572 62.0088 44.1753 61.1907 44.8298 60.2091C45.4842 59.2274 45.6478 58.0821 45.6478 56.7732C45.6478 55.7915 45.4842 54.8098 44.8298 53.6645Z" fill="#C29D79" />
  <path d="M60.0459 53.6645C59.3914 52.6829 58.737 51.8648 57.5917 51.374C56.61 50.8831 55.3011 50.5559 53.9922 50.5559H48.9202V51.374H50.0655H50.2291H53.8286C54.9739 51.374 56.1192 51.5376 56.9372 52.0284C57.9189 52.5193 58.5734 53.1737 59.0642 53.9918C59.555 54.8098 59.7186 55.7915 59.7186 56.9368C59.7186 58.0821 59.555 59.0638 59.0642 59.8818C58.5734 60.6999 57.9189 61.3543 56.9372 61.8452C55.9555 62.336 54.9739 62.4996 53.8286 62.4996H49.7383H48.7566V63.6449H53.8286C55.1375 63.6449 56.2828 63.3177 57.4281 62.8269C58.4097 62.336 59.2278 61.5179 59.8823 60.5363C60.5367 59.5546 60.7003 58.4093 60.7003 57.1004C60.8639 55.7915 60.5367 54.6462 60.0459 53.6645Z" fill="#C29D79" />
  <path d="M90.1505 50.5559H89.3325L83.2788 63.8085H84.4241L89.6597 51.5376L95.0589 63.8085H96.0406L90.1505 50.5559Z" fill="#C29D79" />
  <path d="M89.4961 0L76.407 37.7945H75.2618L62.5 1.47251L49.7382 37.7945H48.5929L35.5039 0H36.6492L49.0837 35.9948L61.8455 0H62.9908L75.7526 36.1584L88.1871 0H89.4961Z" fill="#C29D79" />
</svg>